<svg xmlns="http://www.w3.org/2000/svg" xmlns:xlink="http://www.w3.org/1999/xlink" width="1024" zoomAndPan="magnify" viewBox="0 0 768 767.999994" height="1024" preserveAspectRatio="xMidYMid meet" version="1.0"><defs><clipPath id="d3a04663ee"><path d="M 81.300781 179.300781 L 686.550781 179.300781 L 686.550781 588.800781 L 81.300781 588.800781 Z M 81.300781 179.300781 " clip-rule="nonzero"/></clipPath></defs><g clip-path="url(#d3a04663ee)"><path fill="#ffffff" d="M 357.015625 405.964844 L 321.691406 565.285156 L 447.832031 565.285156 L 412.507812 405.964844 Z M 142.144531 548.308594 C 140.613281 546.777344 138.527344 545.804688 136.164062 545.804688 C 133.796875 545.804688 131.710938 546.777344 130.183594 548.308594 C 128.652344 549.839844 127.679688 551.925781 127.679688 554.292969 C 127.679688 556.65625 128.652344 558.746094 130.183594 560.136719 C 131.710938 561.667969 133.796875 562.640625 136.164062 562.640625 C 138.386719 562.640625 140.613281 561.667969 142.144531 560.136719 C 143.671875 558.605469 144.644531 556.519531 144.644531 554.292969 C 144.644531 551.925781 143.671875 549.839844 142.144531 548.308594 Z M 169.820312 507.957031 L 140.753906 537.734375 C 143.671875 538.570312 146.175781 540.097656 148.261719 542.1875 C 151.320312 545.246094 153.269531 549.5625 153.269531 554.292969 C 153.269531 554.429688 153.269531 554.710938 153.269531 554.847656 L 190.261719 534.8125 C 185.671875 533.421875 181.640625 530.914062 178.300781 527.578125 C 173.296875 522.566406 170.097656 515.609375 169.820312 507.957031 Z M 193.324219 526.601562 L 193.324219 487.503906 C 189.984375 488.476562 187.0625 490.285156 184.5625 492.652344 C 180.945312 496.269531 178.582031 501.417969 178.582031 507.121094 C 178.582031 512.828125 180.804688 517.835938 184.5625 521.59375 C 186.925781 523.820312 189.984375 525.628906 193.324219 526.601562 Z M 152.433594 565.285156 L 193.324219 565.285156 L 193.324219 543.300781 Z M 390.671875 307.867188 L 378.015625 311.347656 L 362.160156 382.449219 L 407.222656 382.449219 Z M 243.667969 372.710938 L 203.058594 372.710938 L 203.058594 467.605469 L 243.667969 467.605469 Z M 228.785156 361.855469 L 247.285156 361.855469 L 247.285156 467.605469 L 253.402344 467.605469 L 253.402344 565.285156 L 294.847656 565.285156 L 349.503906 318.859375 L 228.925781 351.28125 L 228.925781 361.855469 Z M 568.6875 308.703125 C 564.375 334.722656 554.640625 359.492188 541.289062 379.386719 L 509.300781 276.003906 L 415.984375 301.050781 L 474.535156 565.285156 L 612.21875 565.285156 Z M 384.691406 270.71875 C 390.253906 270.71875 394.703125 275.308594 394.703125 280.875 C 394.703125 286.441406 390.253906 290.894531 384.691406 290.894531 C 379.128906 290.894531 374.675781 286.300781 374.675781 280.875 C 374.539062 275.308594 379.128906 270.71875 384.691406 270.71875 Z M 384.691406 255.273438 C 388.585938 255.273438 392.339844 256.105469 395.816406 257.777344 L 509.582031 227.304688 L 515.699219 196.414062 L 532.527344 179.300781 C 557.285156 204.761719 568.828125 236.765625 570.773438 269.324219 L 621.121094 565.285156 L 686.34375 565.285156 L 686.34375 588.800781 L 81.507812 588.800781 L 81.507812 565.285156 L 123.089844 565.285156 C 120.585938 562.363281 119.054688 558.464844 119.054688 554.292969 C 119.054688 549.5625 121.003906 545.246094 124.0625 542.1875 C 124.621094 541.628906 125.316406 541.074219 126.011719 540.515625 L 176.214844 489.035156 C 176.910156 488.199219 177.605469 487.226562 178.441406 486.527344 C 182.335938 482.492188 187.480469 479.710938 193.324219 478.597656 L 193.324219 467.746094 L 199.441406 467.746094 L 199.441406 361.996094 L 218.21875 361.996094 L 218.21875 345.578125 L 208.203125 308.148438 L 363.550781 266.402344 C 368.140625 259.726562 375.929688 255.273438 384.691406 255.273438 Z M 384.691406 255.273438 " fill-opacity="1" fill-rule="evenodd"/></g></svg>